# File created by Blade
# Date/Time:  Tue Apr 07 20:17:56 2015
# Frame Rate: 120.000 fps
#------------------------------------------------------
:FULLY-SPECIFIED
:DEGREES
1316
root 5.720356 33.786135 -12.150738 17.331395 -25.646305 -47.519218
Spine 5.881821 13.864947 28.196402
Head 5.883994 2.702089 16.229317
LeftShoulder -28.021208 46.823033 15.247928
LeftArm 49.755766 -49.253988 -85.603337
LeftForeArm -5.885532 -0.000000 2.852574
LeftHand 16.053312 -0.000000 11.304041
LeftHandThumb1 -26.253704 0.000000 33.147579
RightShoulder -3.850239 4.713261 -28.732859
RightArm 9.292317 3.327469 38.540522
RightForeArm 41.155984 -0.000000 33.511173
RightHand -5.164653 -0.000000 7.779725
RightHandThumb1 -24.326973 -0.000000 -32.862282
LeftUpLeg -7.402004 -4.342838 38.833583
LeftLeg 26.961872 -0.000000 -0.000000
LeftFoot -19.676486 27.198454 -14.947655
LeftToeBase -9.166021 -0.000000 0.000000
RightUpLeg -114.996988 -46.838172 -0.237392
RightLeg 47.414916 -0.000000 -0.000000
RightFoot 43.274067 -8.810480 -0.565095
RightToeBase 35.937771 -0.000000 -0.000000
1317
root 5.719904 33.786439 -12.166682 17.715358 -25.682240 -47.983592
Spine 5.779497 13.929047 28.541817
Head 5.916472 2.930893 16.733683
LeftShoulder -28.071983 47.014697 15.428699
LeftArm 49.450741 -49.585971 -85.367290
LeftForeArm -5.956391 -0.000000 2.744777
LeftHand 16.077357 -0.000000 11.412811
LeftHandThumb1 -26.253704 0.000000 33.147579
RightShoulder -3.772426 4.635169 -28.328627
RightArm 9.125000 4.272399 38.734221
RightForeArm 41.267053 -0.000000 32.837372
RightHand -5.118116 0.000000 7.999072
RightHandThumb1 -24.326973 -0.000000 -32.862282
LeftUpLeg -7.520345 -4.138321 39.253682
LeftLeg 27.092299 -0.000000 -0.000000
LeftFoot -19.662390 27.327742 -14.681086
LeftToeBase -9.306831 -0.000000 0.000000
RightUpLeg -113.731354 -46.861678 -1.266873
RightLeg 47.729179 -0.000000 -0.000000
RightFoot 43.396433 -8.276847 -0.637226
RightToeBase 36.016841 -0.000000 -0.000000
1318
root 5.722283 33.785843 -12.180568 18.033871 -25.622853 -48.412912
Spine 5.699405 13.886907 28.890331
Head 5.888702 3.123278 17.227606
LeftShoulder -28.084720 47.177000 15.644540
LeftArm 49.063680 -49.895519 -85.114582
LeftForeArm -6.026227 -0.000000 2.717854
LeftHand 16.059695 -0.000000 11.755871
LeftHandThumb1 -26.253704 0.000000 33.147579
RightShoulder -3.812437 4.404173 -27.881087
RightArm 9.166784 5.212023 38.911269
RightForeArm 41.880003 -0.000000 32.095997
RightHand -4.885659 -0.000000 8.457281
RightHandThumb1 -24.326973 -0.000000 -32.862282
LeftUpLeg -7.688082 -3.869130 39.683371
LeftLeg 27.252671 -0.000000 -0.000000
LeftFoot -19.705526 27.360831 -14.364394
LeftToeBase -9.421886 -0.000000 0.000000
RightUpLeg -112.479726 -46.930127 -2.182362
RightLeg 48.092526 -0.000000 -0.000000
RightFoot 43.491827 -7.801788 -0.605026
RightToeBase 36.032126 -0.000000 -0.000000
1319
root 5.724660 33.785061 -12.194986 18.283095 -25.510465 -48.792535
Spine 5.666261 13.753040 29.212988
Head 5.782196 3.322561 17.678425
LeftShoulder -28.106707 47.303991 15.824327
LeftArm 48.610943 -50.202451 -84.804581
LeftForeArm -6.151770 -0.000000 2.779083
LeftHand 16.113906 0.000000 12.112814
LeftHandThumb1 -26.253704 0.000000 33.147579
RightShoulder -3.829543 4.471178 -27.480538
RightArm 8.887567 6.113985 39.217430
RightForeArm 42.642476 -0.000000 31.485354
RightHand -4.572659 0.000000 9.140666
RightHandThumb1 -24.326973 -0.000000 -32.862282
LeftUpLeg -7.858610 -3.569125 40.099077
LeftLeg 27.402931 -0.000000 -0.000000
LeftFoot -19.705694 27.210800 -14.287472
LeftToeBase -9.748603 -0.000000 0.000000
RightUpLeg -111.195975 -46.936996 -3.124411
RightLeg 48.493317 -0.000000 -0.000000
RightFoot 43.762679 -7.460405 -0.992589
RightToeBase 35.942381 -0.000000 -0.000000
1320
root 5.729154 33.782752 -12.211560 18.499653 -25.332664 -49.123835
Spine 5.623549 13.558869 29.505206
Head 5.639704 3.512064 18.106354
LeftShoulder -28.126646 47.447370 15.998634
LeftArm 48.267115 -50.540975 -84.633708
LeftForeArm -6.158403 -0.000000 2.910270
LeftHand 16.041291 0.000000 12.422658
LeftHandThumb1 -26.253704 0.000000 33.147579
RightShoulder -3.823364 4.638957 -27.078174
RightArm 8.463382 7.111998 39.599444
RightForeArm 43.253545 0.000000 30.891789
RightHand -4.193410 -0.000000 9.912296
RightHandThumb1 -24.326973 -0.000000 -32.862282
LeftUpLeg -8.074474 -3.238281 40.501200
LeftLeg 27.546747 -0.000000 -0.000000
LeftFoot -19.655589 27.088031 -13.957727
LeftToeBase -9.797177 -0.000000 0.000000
RightUpLeg -109.884309 -46.927963 -4.107874
RightLeg 48.969252 -0.000000 -0.000000
RightFoot 43.932693 -7.171681 -1.524103
RightToeBase 35.619234 -0.000000 -0.000000
1321
root 5.732677 33.782255 -12.229175 18.689031 -25.094483 -49.423624
Spine 5.558459 13.308259 29.777763
Head 5.503280 3.682272 18.524611
LeftShoulder -28.180635 47.644469 16.124846
LeftArm 47.930615 -50.753268 -84.389591
LeftForeArm -6.340828 -0.000000 3.044142
LeftHand 16.133308 -0.000000 12.878876
LeftHandThumb1 -26.253704 0.000000 33.147579
RightShoulder -3.819788 4.674305 -26.663739
RightArm 8.079973 8.212009 40.065185
RightForeArm 43.944073 -0.000000 30.358719
RightHand -3.881112 -0.000000 10.576542
RightHandThumb1 -24.326973 -0.000000 -32.862282
LeftUpLeg -8.309221 -2.925938 40.897133
LeftLeg 27.648036 -0.000000 -0.000000
LeftFoot -19.583169 26.956502 -13.668016
LeftToeBase -9.851832 -0.000000 0.000000
RightUpLeg -108.580453 -46.921940 -5.065101
RightLeg 49.516055 -0.000000 -0.000000
RightFoot 44.067100 -6.994195 -1.980838
RightToeBase 35.832389 -0.000000 -0.000000
1322
root 5.739522 33.781141 -12.248303 18.894347 -24.782869 -49.677448
Spine 5.421517 12.995608 30.021571
Head 5.375395 3.889534 18.894171
LeftShoulder -28.192748 47.786202 16.274118
LeftArm 47.628145 -51.034074 -84.214730
LeftForeArm -6.397057 -0.000000 3.163312
LeftHand 16.124413 -0.000000 13.327751
LeftHandThumb1 -26.253704 0.000000 33.147579
RightShoulder -3.788786 4.870629 -26.257711
RightArm 7.556971 9.289671 40.610122
RightForeArm 44.795857 -0.000000 29.797423
RightHand -3.695956 0.000000 11.390601
RightHandThumb1 -24.326973 -0.000000 -32.862282
LeftUpLeg -8.627307 -2.689522 41.272060
LeftLeg 27.751355 -0.000000 -0.000000
LeftFoot -19.582016 26.775831 -13.490356
LeftToeBase -9.906561 -0.000000 0.000000
RightUpLeg -107.207212 -46.979760 -6.162334
RightLeg 50.097556 -0.000000 -0.000000
RightFoot 44.275322 -6.977786 -1.934522
RightToeBase 35.840606 -0.000000 -0.000000
1323
root 5.750609 33.778551 -12.264130 19.041199 -24.472294 -49.832917
Spine 5.277412 12.679061 30.184489
Head 5.279356 4.029730 19.219512
LeftShoulder -28.210773 47.932224 16.410313
LeftArm 47.385433 -51.230405 -84.053031
LeftForeArm -6.616942 -0.000000 3.287269
LeftHand 16.205532 -0.000000 13.722931
LeftHandThumb1 -26.253704 0.000000 33.147579
RightShoulder -3.767690 5.015390 -25.813993
RightArm 7.032469 10.387392 41.164451
RightForeArm 45.949890 -0.000000 29.258928
RightHand -3.577038 -0.000000 11.987195
RightHandThumb1 -24.326973 -0.000000 -32.862282
LeftUpLeg -8.933274 -2.585321 41.538036
LeftLeg 27.805959 -0.000000 -0.000000
LeftFoot -19.546840 26.703890 -13.298123
LeftToeBase -10.067270 -0.000000 0.000000
RightUpLeg -105.942895 -47.066976 -7.198510
RightLeg 50.857012 -0.000000 -0.000000
RightFoot 44.200754 -6.897206 -1.623226
RightToeBase 35.638639 -0.000000 -0.000000
1324
root 5.767206 33.779269 -12.275217 19.136266 -24.098023 -50.006887
Spine 5.165876 12.279758 30.441368
Head 5.212577 4.183129 19.434810
LeftShoulder -28.170626 48.003558 16.538887
LeftArm 47.057379 -51.409157 -83.821200
LeftForeArm -6.845019 -0.000000 3.394597
LeftHand 16.344937 -0.000000 14.213457
LeftHandThumb1 -26.253704 0.000000 33.147579
RightShoulder -3.735883 5.094889 -25.409361
RightArm 6.607377 11.650288 41.852156
RightForeArm 47.061368 -0.000000 28.650273
RightHand -3.517583 0.000000 12.602137
RightHandThumb1 -24.326973 -0.000000 -32.862282
LeftUpLeg -9.228331 -2.619650 41.824453
LeftLeg 27.849346 -0.000000 -0.000000
LeftFoot -19.510866 26.667837 -13.136260
LeftToeBase -10.048022 -0.000000 0.000000
RightUpLeg -104.595928 -47.175958 -8.161390
RightLeg 51.660893 -0.000000 -0.000000
RightFoot 44.055146 -6.792649 -1.286132
RightToeBase 35.204734 -0.000000 -0.000000
1325
root 5.782321 33.789760 -12.291727 19.359542 -23.715680 -50.321754
Spine 4.984974 11.973476 30.833094
Head 5.199219 4.273793 19.576018
LeftShoulder -28.108866 48.070419 16.652715
LeftArm 46.791287 -51.549716 -83.613057
LeftForeArm -7.115159 -0.000000 3.505100
LeftHand 16.395817 0.000000 14.619771
LeftHandThumb1 -26.253704 0.000000 33.147579
RightShoulder -3.698774 5.069268 -24.907445
RightArm 6.161885 12.672236 42.362615
RightForeArm 48.030275 0.000000 28.159548
RightHand -3.395458 0.000000 13.020265
RightHandThumb1 -24.326973 -0.000000 -32.862282
LeftUpLeg -9.556147 -2.608188 42.254483
LeftLeg 27.886773 -0.000000 -0.000000
LeftFoot -19.457430 26.626569 -12.990882
LeftToeBase -9.910966 -0.000000 0.000000
RightUpLeg -103.219507 -47.120717 -8.945532
RightLeg 52.193388 -0.000000 -0.000000
RightFoot 44.303211 -6.598225 -1.595766
RightToeBase 35.101797 -0.000000 -0.000000
1326
root 5.797349 33.800992 -12.312612 19.646804 -23.374716 -50.590186
Spine 4.720074 11.765434 31.133101
Head 5.228113 4.340956 19.736747
LeftShoulder -27.992575 48.136417 16.815920
LeftArm 46.577921 -51.670245 -83.426832
LeftForeArm -7.407839 -0.000000 3.584122
LeftHand 16.430260 0.000000 15.060205
LeftHandThumb1 -26.253704 0.000000 33.147579
RightShoulder -3.684084 4.961916 -24.355879
RightArm 5.837510 13.757100 42.947880
RightForeArm 49.194192 0.000000 27.706739
RightHand -3.423163 0.000000 12.947049
RightHandThumb1 -24.326973 -0.000000 -32.862282
LeftUpLeg -9.931398 -2.579261 42.635290
LeftLeg 27.916838 -0.000000 -0.000000
LeftFoot -19.380189 26.622198 -12.864951
LeftToeBase -10.275174 -0.000000 0.000000
RightUpLeg -101.579621 -46.987666 -10.250449
RightLeg 52.778328 -0.000000 -0.000000
RightFoot 44.583588 -6.795676 -1.047365
RightToeBase 35.336441 -0.000000 -0.000000
